/* XPM */
static char *loop[] = {
/* columns rows colors chars-per-pixel */
"40 40 61 1 ",
"  c #4E4E4E4E5050",
". c #515051505352",
"X c #525152515454",
"o c #545354535554",
"O c #575657565959",
"+ c #595859585B5B",
"@ c #5A5A5A5A5C5C",
"# c #5F5F5F5F6161",
"$ c #616161616362",
"% c #636363636564",
"& c #676767676969",
"* c #686868686A6A",
"= c #6D6D6D6D6E6E",
"- c #6E6E6E6E7070",
"; c #717171717373",
": c #727272727474",
"> c #767676767777",
", c #787778777A7A",
"< c #797979797B7B",
"1 c #7E7E7E7E7F7F",
"2 c #828282828383",
"3 c #888788878A8A",
"4 c #8A8A8A8A8B8B",
"5 c #8B8B8B8B8C8C",
"6 c #8D8D8D8D8E8D",
"7 c #909090909191",
"8 c #919191919392",
"9 c #979797979898",
"0 c #989898989999",
"q c #9F9F9F9FA0A0",
"w c #A1A1A1A1A2A2",
"e c #A3A3A3A3A4A4",
"r c #A5A5A5A5A6A6",
"t c #AAAAAAAAABAB",
"y c #ABABABABACAC",
"u c #ACACACACADAD",
"i c #B0B0B0B0B1B1",
"p c #B1B1B1B1B2B2",
"a c #B3B3B3B3B4B4",
"s c gray73",
"d c #BABABABABBBB",
"f c #BCBCBCBCBDBD",
"g c #C3C3C3C3C3C3",
"h c #C5C5C5C5C5C5",
"j c #CBCBCBCBCCCC",
"k c #CECECECECECE",
"l c #CFCFCFCFD0D0",
"z c #D1D1D1D1D2D2",
"x c #D6D6D6D6D7D7",
"c c #D8D8D8D8D9D9",
"v c gainsboro",
"b c #DCDCDCDCDDDD",
"n c #E1E1E1E1E1E1",
"m c #E3E3E3E3E4E4",
"M c #E7E7E7E7E8E8",
"N c #ECECECECECEC",
"B c gray94",
"V c #F8F8F8F8F8F8",
"C c gray98",
"Z c gray99",
"A c None",
/* pixels */
"AAAAAAAAAAAAAAAAAANs4>&@#-1exAAAAAAAAAAA",
"AAAAAAAAAAAAAAAAs;           @0mAAAAAAAA",
"AAAAAAAAAAAAAAz*               .wCAAAAAA",
"AAAAAAAAAAAAAw                   =nAAAAA",
"vvvvvAAAAAAC5                     $CAAAA",
"     AAAAAA4       >yvBACNg7O    XjAAAAA",
"     AAAAC5      :zAAAAAAAAABqX XkAAAAAA",
"     AAAC2      yAAAAAAAAAAAAAv=lAAAAAAA",
"     AAA4      sAAAAAAAAAAAAAAACAAAAAAAA",
"     AC2     .fAAAAAAAAAAAAAAAAAAAAAAAAA",
"     C2      fAAAAAAAAAAAAAAAAAAAAAAAAAA",
"     5      aAAAAAAAAAAAAAAAAAAAAAAAAAAA",
"           sAAAAAAAAAAAAAAAAAAAAAAAAAAAA",
"          sAAAAAAAAAAAAAAAAAAAAAAAAAAAAA",
"         5vvvvvAAAAAAAAAAAAAAAAAAAAAAAAA",
"               AAAAAAAAAAAAAAAAAAAAAAAAA",
"               AAAAAAAAAAAAAAAAAAAAAAAAA",
"               AAAAAAAAAAAAAAAAAAAAAAAAA",
"               AAAAAAAAAAAAAAAAAAAAAAAAA",
";;;;;;;;;;;;;;-AAAAAAAAAAAAAAAAAAAAAAAAA",
"AAAAAAAAAAAAAAAAAAAAAAAAA               ",
"AAAAAAAAAAAAAAAAAAAAAAAAA               ",
"AAAAAAAAAAAAAAAAAAAAAAAAA               ",
"AAAAAAAAAAAAAAAAAAAAAAAAA               ",
"AAAAAAAAAAAAAAAAAAAAAAAAA               ",
"AAAAAAAAAAAAAAAAAAAAAAAAAAAAAA9         ",
"AAAAAAAAAAAAAAAAAAAAAAAAAAAAA7          ",
"AAAAAAAAAAAAAAAAAAAAAAAAAAAA9           ",
"AAAAAAAAAAAAAAAAAAAAAAAAAAA7      i     ",
"AAAAAAAAAAAAAAAAAAAAAAAAAA7     XiA     ",
"AAAAAAAAAAAAAAAAAAAAAAAAA7      iAA     ",
"AAAAAAAANAAAAAAAAAAAAAAA9      yAAA     ",
"AAAAAAAwXsAAAAAAAAAAAAB,      iAAAA     ",
"AAAAAAy   3nAAAAAAAAZs%      yAAAAA     ",
"AAAAAy     X<ylnMch7#       tAAAAAA     ",
"AAAAC=                     iAAAAAAAAAAAA",
"AAAAAC2                  OhAAAAAAAAAAAAA",
"AAAAAAAi@               <mAAAAAAAAAAAAAA",
"AAAAAAAABr@           <kAAAAAAAAAAAAAAAA",
"AAAAAAAAAAAkq<%o +=4aNAAAAAAAAAAAAAAAAAA"
};
