/* XPM */
static char * pause_xpm[] = {
"32 32 2 1",
" 	c None",
".	c #4E4E50",
"    ........        ........    ",
"    ........        ........    ",
"    ........        ........    ",
"    ........        ........    ",
"    ........        ........    ",
"    ........        ........    ",
"    ........        ........    ",
"    ........        ........    ",
"    ........        ........    ",
"    ........        ........    ",
"    ........        ........    ",
"    ........        ........    ",
"    ........        ........    ",
"    ........        ........    ",
"    ........        ........    ",
"    ........        ........    ",
"    ........        ........    ",
"    ........        ........    ",
"    ........        ........    ",
"    ........        ........    ",
"    ........        ........    ",
"    ........        ........    ",
"    ........        ........    ",
"    ........        ........    ",
"    ........        ........    ",
"    ........        ........    ",
"    ........        ........    ",
"    ........        ........    ",
"    ........        ........    ",
"    ........        ........    ",
"    ........        ........    ",
"    ........        ........    "};
