/* XPM */
static char * play_xpm[] = {
"32 32 3 1",
" 	c None",
".	c #4E4E51",
"+	c #4E4E50",
"    .                           ",
"    ++                          ",
"    ++++                        ",
"    +++++                       ",
"    +++++++                     ",
"    ++++++++                    ",
"    ++++++++++                  ",
"    +++++++++++                 ",
"    +++++++++++++               ",
"    ++++++++++++++              ",
"    ++++++++++++++++            ",
"    +++++++++++++++++           ",
"    +++++++++++++++++++         ",
"    ++++++++++++++++++++        ",
"    ++++++++++++++++++++++      ",
"    +++++++++++++++++++++++     ",
"    +++++++++++++++++++++++     ",
"    ++++++++++++++++++++++      ",
"    ++++++++++++++++++++        ",
"    +++++++++++++++++++         ",
"    +++++++++++++++++           ",
"    ++++++++++++++++            ",
"    ++++++++++++++              ",
"    +++++++++++++               ",
"    +++++++++++                 ",
"    ++++++++++                  ",
"    ++++++++                    ",
"    +++++++                     ",
"    +++++                       ",
"    ++++                        ",
"    ++                          ",
"    +                           "};
